<svg width="116" height="30" viewBox="0 0 116 30" fill="none" xmlns="http://www.w3.org/2000/svg">
    <path d="M11.2974 0.684326V7.8654H22.5861V29.3159H30.1206V9.66067V8.26154V0.684326H11.2974Z" fill="black"/>
    <path d="M0 0.684326V22.2275L7.44779 29.3159H18.8319V22.2275H7.52583V0.684326H0Z" fill="black"/>
    <path d="M40.9759 1.33325C41.7215 1.33325 43.4903 1.49339 44.496 1.67882V2.48796C44.4787 2.48796 42.2937 2.3531 40.9759 2.3531C39.1724 2.3531 38.5222 3.13695 38.5222 6.47463C38.5222 8.71661 39.0424 10.5793 40.9759 10.5793C42.4758 10.5793 44.496 10.4782 44.496 10.4782V11.2873C43.4903 11.4643 41.7215 11.5907 40.9759 11.5907C38.3054 11.5907 37.4557 9.39932 37.4557 6.44935C37.4557 3.22123 38.106 1.33325 40.9759 1.33325Z" fill="black"/>
    <path d="M50.5912 8.17733H47.8254V10.5373H50.5912C51.0507 10.5373 51.6663 10.4193 51.6663 9.39103C51.6663 8.73361 51.3542 8.17733 50.5912 8.17733ZM50.5739 5.19364H47.8254V7.22491H50.5739C51.2415 7.22491 51.6056 6.8962 51.6056 6.1882C51.6056 5.37064 51.0507 5.19364 50.5739 5.19364ZM52.6634 6.16292C52.6634 6.8372 52.4467 7.47776 51.7964 7.74747C52.2819 7.92447 52.7241 8.47232 52.7241 9.45003C52.7241 10.5457 52.2299 11.5234 50.6086 11.5234H46.7676V4.22437H50.6086C52.1519 4.22437 52.6634 5.27793 52.6634 6.16292Z" fill="black"/>
    <path d="M58.7066 7.3933C59.3396 7.3933 59.617 7.17416 59.617 6.71902C59.617 5.26089 59.3222 5.13447 57.7616 5.13447C56.1489 5.13447 55.4813 5.15132 55.4813 7.37644L58.7066 7.3933ZM57.7529 4.12305C59.5563 4.12305 60.6748 4.28319 60.6748 6.71902C60.6748 7.77258 60.0852 8.38786 58.7066 8.38786H55.4813C55.4813 10.1073 55.8194 10.5287 56.9379 10.5287C58.2644 10.5287 59.4523 10.5371 60.5274 10.3938V11.1608C59.3656 11.4811 58.1257 11.5485 56.9379 11.5485C54.9957 11.5485 54.4235 10.6551 54.4235 7.8063C54.4235 4.54447 55.4032 4.12305 57.7529 4.12305Z" fill="black"/>
    <path d="M64.2123 11.5066V5.2105H62.0534V4.22437H67.4897V5.2105H65.2787V11.5066H64.2123Z" fill="black"/>
    <path d="M72.0069 10.5795C73.5762 10.5795 74.3305 10.3856 74.3305 7.99195C74.3305 5.37911 73.7149 5.18526 72.0069 5.18526C70.4029 5.18526 69.7006 5.37911 69.7006 7.99195C69.7006 10.4025 70.5243 10.5795 72.0069 10.5795ZM72.0069 4.15698C74.5906 4.15698 75.397 5.09254 75.397 7.98352C75.397 10.6806 74.608 11.5909 72.0069 11.5909C69.4405 11.5909 68.6428 10.5879 68.6428 7.98352C68.6428 4.9914 69.5012 4.15698 72.0069 4.15698Z" fill="black"/>
    <path d="M81.0153 8.17733H78.2495V10.5373H81.0153C81.4748 10.5373 82.0904 10.4193 82.0904 9.39103C82.0904 8.73361 81.7783 8.17733 81.0153 8.17733ZM80.998 5.19364H78.2495V7.22491H80.998C81.6743 7.22491 82.0384 6.8962 82.0384 6.1882C82.0471 5.37064 81.4748 5.19364 80.998 5.19364ZM83.0875 6.16292C83.0875 6.8372 82.8708 7.47776 82.2292 7.74747C82.7147 7.92447 83.1569 8.47232 83.1569 9.45003C83.1569 10.5457 82.6627 11.5234 81.0413 11.5234H77.1917V4.22437H81.0413C82.5846 4.22437 83.0875 5.27793 83.0875 6.16292Z" fill="black"/>
    <path d="M92.7722 11.5066H91.7058V4.22437H92.7722V11.5066ZM89.2174 9.21403C89.2174 8.56504 89.07 8.27004 88.2463 8.27004H86.2522V10.4952H88.1163C88.9746 10.4952 89.2174 10.04 89.2174 9.39946V9.21403ZM90.2839 9.1466V9.39103C90.2839 10.2086 90.0151 11.4982 88.125 11.4982H85.1944V4.22437H86.2608V7.25862H88.4284C89.6249 7.25862 90.2839 8.00876 90.2839 9.1466Z" fill="black"/>
    <path d="M98.9715 7.3933C99.6131 7.3933 99.8906 7.17416 99.8906 6.71902C99.8906 5.26089 99.6045 5.13447 98.0438 5.13447C96.4225 5.13447 95.7549 5.15132 95.7549 7.37644L98.9715 7.3933ZM98.0352 4.12305C99.8299 4.12305 100.957 4.28319 100.957 6.71902C100.957 7.77258 100.367 8.38786 98.9889 8.38786H95.7549C95.7549 10.1073 96.093 10.5287 97.2115 10.5287C98.538 10.5287 99.7345 10.5371 100.81 10.3938V11.1608C99.6478 11.4811 98.408 11.5485 97.2115 11.5485C95.2693 11.5485 94.6884 10.6551 94.6884 7.8063C94.6971 4.54447 95.6768 4.12305 98.0352 4.12305Z" fill="black"/>
    <path d="M43.8371 20.6092V28.9197H42.7706V20.6092C42.7706 19.8843 42.2937 19.9012 41.8776 19.9012H37.4731V18.8813H41.8776C42.8313 18.8813 43.8371 19.0499 43.8371 20.6092Z" fill="black"/>
    <path d="M50.3831 24.7982C51.0161 24.7982 51.2935 24.5791 51.2935 24.1239C51.2935 22.6658 51.0074 22.5394 49.4554 22.5394C47.8341 22.5394 47.1665 22.5562 47.1665 24.7898L50.3831 24.7982ZM49.4294 21.5364C51.2242 21.5364 52.3513 21.6965 52.3513 24.1324C52.3513 25.1859 51.753 25.8012 50.3831 25.8012H47.1578C47.1578 27.5206 47.4873 27.942 48.6144 27.942C49.9409 27.942 51.1375 27.9505 52.2126 27.8072V28.5742C51.0421 28.8944 49.8109 28.9619 48.6144 28.9619C46.6722 28.9619 46.0913 28.0685 46.0913 25.2196C46.0827 21.9494 47.0624 21.5364 49.4294 21.5364Z" fill="black"/>
    <path d="M56.6865 25.2701L53.912 21.6375H55.2298L57.3194 24.4357L59.4436 21.6375H60.7702L57.9783 25.3123L60.6574 28.9197H59.4436L57.3454 26.1467L55.2298 28.9197H53.912L56.6865 25.2701Z" fill="black"/>
    <path d="M67.0128 21.6375H68.0792V28.9112H67.0128V25.8096H63.8395V28.9112H62.7643V21.6375H63.8395V24.7981H67.0128V21.6375Z" fill="black"/>
    <path d="M73.4722 27.9843C75.0415 27.9843 75.7872 27.7904 75.7872 25.3883C75.7872 22.7839 75.1629 22.5816 73.4722 22.5816C71.8595 22.5816 71.1659 22.7755 71.1659 25.3883C71.1659 27.8157 71.9896 27.9843 73.4722 27.9843ZM73.4722 21.5618C76.0559 21.5618 76.8536 22.4973 76.8536 25.3883C76.8623 28.0938 76.0733 28.9957 73.4722 28.9957C70.8971 28.9957 70.0994 27.9927 70.0994 25.3883C70.0994 22.3962 70.9665 21.5618 73.4722 21.5618Z" fill="black"/>
    <path d="M79.576 21.6375H84.4921V28.9112H83.4257V22.6404H80.6165V27.0991C80.6165 28.4982 80.0529 29.0039 79.1945 29.0039H78.1541L78.1628 28.2791H78.1975C78.2321 28.2791 78.4316 28.237 78.6483 28.178C78.8477 28.1274 79.0298 28.0684 79.0298 28.0684C79.3159 28.001 79.5414 27.8492 79.5414 27.057V21.6375H79.576Z" fill="black"/>
    <path d="M89.9284 27.9843C91.4977 27.9843 92.2434 27.7904 92.2434 25.3883C92.2434 22.7839 91.6191 22.5816 89.9284 22.5816C88.3157 22.5816 87.6221 22.7755 87.6221 25.3883C87.6221 27.8157 88.4371 27.9843 89.9284 27.9843ZM89.9284 21.5618C92.5122 21.5618 93.3012 22.4973 93.3012 25.3883C93.3012 28.0938 92.5122 28.9957 89.9284 28.9957C87.3533 28.9957 86.547 27.9927 86.547 25.3883C86.547 22.3962 87.414 21.5618 89.9284 21.5618Z" fill="black"/>
    <path d="M97.2722 21.6375H99.8126V22.6489H97.2722C96.8386 22.6489 96.3704 22.632 96.3704 23.3653V28.9197H95.304V23.3653C95.304 21.806 96.3097 21.6375 97.2722 21.6375Z" fill="black"/>
    <path d="M102.969 26.9475L106.645 21.6292H107.633V28.9114H106.558V23.6014L102.899 28.9114H101.919V21.6376H102.969V26.9475Z" fill="black"/>
    <path d="M111.344 26.9475L115.012 21.6292H116V28.9114H114.934V23.6014L111.266 28.9114H110.286V21.6376H111.344V26.9475Z" fill="black"/>
</svg>
