<svg width="40" height="40" viewBox="0 0 40 40" fill="none" xmlns="http://www.w3.org/2000/svg">
    <rect width="40" height="40" rx="20" fill="black"/>
    <path d="M25.2911 19.594C25.2911 19.594 27.3992 16.6203 27.6086 15.6426C27.6787 15.2941 27.5248 15.0983 27.1616 15.0983C27.1616 15.0983 25.9474 15.0983 25.333 15.0983C24.9143 15.0983 24.7605 15.2795 24.6349 15.5453C24.6349 15.5453 23.6456 17.6524 22.443 18.9796C22.0565 19.409 21.8608 19.5375 21.6475 19.5375C21.4752 19.5375 21.3963 19.3944 21.3963 19.0068V15.6144C21.3963 15.1402 21.3408 15 20.9494 15H18.0166C17.7936 15 17.6534 15.1295 17.6534 15.3067C17.6534 15.7537 18.3379 15.8549 18.3379 17.0662V19.5657C18.3379 20.0682 18.3096 20.2639 18.073 20.2639C17.445 20.2639 15.9513 18.1003 15.113 15.6426C14.9455 15.1402 14.7634 15 14.2892 15H12.4606C12.1957 15 12 15.1811 12 15.4469C12 15.9357 12.5725 18.1977 14.8199 21.2269C16.3281 23.2648 18.3106 24.3681 20.0974 24.3681C21.186 24.3681 21.4518 24.187 21.4518 23.7254V22.1616C21.4518 21.7712 21.6056 21.6027 21.8286 21.6027C22.0798 21.6027 22.5239 21.6835 23.5599 22.7059C24.7887 23.8783 24.8724 24.3671 25.5424 24.3671H27.5949C27.8043 24.3671 28 24.2697 28 23.9202C28 23.4596 27.3992 22.6358 26.4781 21.6582C26.1013 21.1558 25.4869 20.6115 25.2911 20.3603C25.0117 20.0691 25.0954 19.9017 25.2911 19.594V19.594Z" fill="white"/>
</svg>
