<svg width="40" height="40" viewBox="0 0 40 40" fill="none" xmlns="http://www.w3.org/2000/svg">
    <rect width="40" height="40" rx="20" fill="black"/>
    <path fill-rule="evenodd" clip-rule="evenodd" d="M28.1047 14.4444C28.6442 14.9902 28.8205 16.2308 28.8205 16.2308C28.8205 16.2308 29 17.6872 29 19.1452V20.5106C29 21.967 28.8205 23.4234 28.8205 23.4234C28.8205 23.4234 28.6442 24.6633 28.1047 25.2099C27.4874 25.8563 26.8027 25.9228 26.4162 25.9604C26.3743 25.9645 26.3358 25.9682 26.3014 25.9723C23.7823 26.1543 20 26.1599 20 26.1599C20 26.1599 15.3201 26.1172 13.8798 25.9788C13.8109 25.9657 13.7273 25.9556 13.6326 25.9442C13.1766 25.8892 12.4625 25.803 11.8953 25.2091C11.3558 24.6633 11.1803 23.4226 11.1803 23.4226C11.1803 23.4226 11 21.9662 11 20.5098V19.1444C11 17.6872 11.1803 16.2308 11.1803 16.2308C11.1803 16.2308 11.3558 14.991 11.8953 14.4444C12.5126 13.798 13.1973 13.7314 13.5838 13.6939C13.6257 13.6898 13.6642 13.686 13.6986 13.6819C16.2177 13.5 19.996 13.5 19.996 13.5H20.004C20.004 13.5 23.7823 13.5 26.3014 13.6819C26.3358 13.686 26.3743 13.6898 26.4162 13.6939C26.8027 13.7314 27.4874 13.798 28.1047 14.4444ZM18.1411 17.1067L18.1419 22.1642L23.0046 19.6443L18.1411 17.1067Z" fill="white"/>
</svg>
